# xmcd
#
# Track frame offsets:
# 150
# 21217
# 40855
# 57947
# 75507
# 102504
# 123200
# 146187
# 173134
# 196277
#
# Disc length: 2851 seconds
#
#
# Revision: 0
# Processed by: cddbd v1.5PL3 Copyright (c) Steve Scherf et al.
# Submitted via: FreeRIP 2.51 
#
DISCID=830b210a
DTITLE=Heritage Singers - Because of Love
DYEAR=1900
DGENRE=Contemporary Christian
TTITLE0=Because of Love
TTITLE1=Alone in His Presence (Psalm 16:11)
TTITLE2=Total Praise
TTITLE3=Be Strong
TTITLE4=So Amazing (Psalm 139)
TTITLE5=Bryan's Hymn (When I Turn to You)
TTITLE6=Breathe On Me
TTITLE7=You Saved Me
TTITLE8=No More Night
TTITLE9=I Surrender All
EXTD=
EXTT0=
EXTT1=
EXTT2=
EXTT3=
EXTT4=
EXTT5=
EXTT6=
EXTT7=
EXTT8=
EXTT9=
PLAYORDER=
